# Created by Kenney (www.kenney.nl)

mtllib floor.mtl

g floor

v -7.219114E-16 0 0 1 1 1
v 0.5 0 0 1 1 1
v -7.219114E-16 0.025 0 1 1 1
v 0.5 0.025 0 1 1 1
v -0.5 0 -0.5 1 1 1
v -7.219114E-16 0 -0.5 1 1 1
v -0.5 0.025 -0.5 1 1 1
v -7.219114E-16 0.025 -0.5 1 1 1
v -0.5 0.025 0 1 1 1
v 0.5 0.025 0.5 1 1 1
v -7.219114E-16 0.025 0.5 1 1 1
v -0.5 0 0 1 1 1
v 0.5 0 0.5 1 1 1
v -7.219114E-16 0 0.5 1 1 1
v -0.5 0 0.5 1 1 1
v 0.5 0 -0.5 1 1 1

vn 0 0 -1
vn 0.7071068 0 -0.7071068
vn -0.7071068 0 -0.7071068
vn 0 1 0
vn -0.7071068 0 0.7071068
vn 1 0 0
vn 0.7071068 0 0.7071068
vn 0 0 1
vn -1 0 0

vt 0.21875 0.025
vt 0.21875 0.225

usemtl colormap

f 3/2/1 2/1/2 1/1/1
f 2/1/2 3/2/1 4/2/2
f 7/2/3 6/1/2 5/1/3
f 6/1/2 7/2/3 8/2/2
f 7/2/4 3/2/4 8/2/4
f 3/2/4 7/2/4 9/2/4
f 3/2/4 10/2/4 4/2/4
f 10/2/4 3/2/4 11/2/4
f 12/1/5 7/2/3 5/1/3
f 7/2/3 12/1/5 9/2/5
f 3/2/6 6/1/2 8/2/2
f 6/1/2 3/2/6 1/1/6
f 10/2/7 2/1/2 4/2/2
f 2/1/2 10/2/7 13/1/7
f 3/2/8 12/1/5 1/1/8
f 12/1/5 3/2/8 9/2/5
f 10/2/7 14/1/5 13/1/7
f 14/1/5 10/2/7 11/2/5
f 14/1/5 3/2/9 1/1/9
f 3/2/9 14/1/5 11/2/5
f 14/1/4 12/1/4 15/1/4
f 12/1/4 14/1/4 1/1/4
f 2/1/4 6/1/4 1/1/4
f 6/1/4 2/1/4 16/1/4

g floor




usemtl colormap

f 3/2/1 2/1/2 1/1/1
f 2/1/2 3/2/1 4/2/2
f 7/2/3 6/1/2 5/1/3
f 6/1/2 7/2/3 8/2/2
f 7/2/4 3/2/4 8/2/4
f 3/2/4 7/2/4 9/2/4
f 3/2/4 10/2/4 4/2/4
f 10/2/4 3/2/4 11/2/4
f 12/1/5 7/2/3 5/1/3
f 7/2/3 12/1/5 9/2/5
f 3/2/6 6/1/2 8/2/2
f 6/1/2 3/2/6 1/1/6
f 10/2/7 2/1/2 4/2/2
f 2/1/2 10/2/7 13/1/7
f 3/2/8 12/1/5 1/1/8
f 12/1/5 3/2/8 9/2/5
f 10/2/7 14/1/5 13/1/7
f 14/1/5 10/2/7 11/2/5
f 14/1/5 3/2/9 1/1/9
f 3/2/9 14/1/5 11/2/5
f 14/1/4 12/1/4 15/1/4
f 12/1/4 14/1/4 1/1/4
f 2/1/4 6/1/4 1/1/4
f 6/1/4 2/1/4 16/1/4

