# Created by Kenney (www.kenney.nl)

mtllib vending-machine.mtl

g vending-machine

v -0.2 0.75 0.2 1 1 1
v 0.2 0.75 0.2 1 1 1
v -0.2353553 0.7353554 0.2 1 1 1
v 0.2353553 0.7353554 0.2 1 1 1
v -0.25 0.7 0.2 1 1 1
v 0.25 0.7 0.2 1 1 1
v -0.2 0.2 0.2 1 1 1
v 0.125 0.2 0.2 1 1 1
v -0.2 0.1 0.2 1 1 1
v -0.25 3.711027E-17 0.2 1 1 1
v 0.125 0.1 0.2 1 1 1
v 0.25 3.711027E-17 0.2 1 1 1
v 0.2 0.75 0.1 1 1 1
v 0.2 0.75 0.2 1 1 1
v -0.2 0.75 0.1 1 1 1
v 0.25 0.7 0.1 1 1 1
v 0.25 3.711027E-17 0.1 1 1 1
v -0.2353553 0.7353554 0.1 1 1 1
v -0.25 0.7 0.1 1 1 1
v 0.2353553 0.7353554 0.1 1 1 1
v 0.2353553 0.7353554 0.2 1 1 1
v -0.25 3.711027E-17 0.1 1 1 1
v 0.125 0.1 0.15 1 1 1
v -0.2 0.1 0.15 1 1 1
v 0.125 0.2 0.15 1 1 1
v -0.2 0.2 0.15 1 1 1
v -0.25 3.711027E-17 -0.2 1 1 1
v -0.25 0.7 -0.2 1 1 1
v -0.25 0 0.05 1 1 1
v -0.25 0.7 0.05 1 1 1
v 0.2353553 0.7353554 -0.2 1 1 1
v 0.25 0.7 -0.2 1 1 1
v 0.2353553 0.7353554 0.05 1 1 1
v 0.25 0.7 0.05 1 1 1
v -0.2353553 0.7353554 -0.2 1 1 1
v -0.2353553 0.7353554 0.05 1 1 1
v -0.2 0.75 -0.2 1 1 1
v -0.2 0.75 0.05 1 1 1
v 0.25 3.711027E-17 -0.2 1 1 1
v 0.2 0.75 -0.2 1 1 1
v 0.2 0.75 0.05 1 1 1
v 0.25 3.711027E-17 0.1 1 1 1
v 0.25 0 0.05 1 1 1
v -0.25 3.711027E-17 0.1 1 1 1
v 0.125 0.25 0.2 1 1 1
v -0.2 0.25 0.2 1 1 1
v 0.06655077 0.25 0.2359619 1 1 1
v -0.0375 0.25 0.25 1 1 1
v -0.1415508 0.25 0.2359619 1 1 1
v 0.125 0.7 0.2 1 1 1
v 0.06655077 0.7 0.2359619 1 1 1
v -0.2 0.7 0.2 1 1 1
v -0.0375 0.7 0.25 1 1 1
v -0.1415508 0.7 0.2359619 1 1 1
v 0.1552796 0.2544246 0.2 1 1 1
v 0.1552796 0.3044246 0.2 1 1 1
v 0.1552796 0.2544246 0.2125 1 1 1
v 0.1552796 0.3044246 0.2125 1 1 1
v 0.1677796 0.2919246 0.2 1 1 1
v 0.1677796 0.2669246 0.2 1 1 1
v 0.1677796 0.2919246 0.2125 1 1 1
v 0.1677796 0.2669246 0.2125 1 1 1
v 0.1927796 0.3044246 0.2 1 1 1
v 0.1927796 0.3044246 0.2125 1 1 1
v 0.1802796 0.2669246 0.2 1 1 1
v 0.1802796 0.2919246 0.2 1 1 1
v 0.1802796 0.2669246 0.2125 1 1 1
v 0.1802796 0.2919246 0.2125 1 1 1
v 0.1927796 0.2544246 0.2 1 1 1
v 0.1927796 0.2544246 0.2125 1 1 1
v -0.15 0.15 -0.225 1 1 1
v -0.15 0.4 -0.225 1 1 1
v -0.15 0.15 -0.2 1 1 1
v -0.15 0.4 -0.2 1 1 1
v 0.1 0.45 -0.225 1 1 1
v 0.1 0.45 -0.2 1 1 1
v -0.1 0.45 -0.225 1 1 1
v -0.1 0.45 -0.2 1 1 1
v 0.1 0.1 -0.2 1 1 1
v 0.1 0.1 -0.225 1 1 1
v -0.1 0.1 -0.2 1 1 1
v -0.1 0.1 -0.225 1 1 1
v 0.15 0.4 -0.225 1 1 1
v 0.15 0.15 -0.225 1 1 1
v 0.15 0.4 -0.2 1 1 1
v 0.15 0.15 -0.2 1 1 1
v 0.2 0.75 0.05 1 1 1
v 0.2 0.75 0.1 1 1 1
v -0.2 0.75 0.05 1 1 1
v -0.2 0.75 0.1 1 1 1
v 0.25 0.7 0.05 1 1 1
v 0.25 0 0.05 1 1 1
v 0.25 0.7 0.1 1 1 1
v -0.25 0.7 0.05 1 1 1
v -0.2353553 0.7353554 0.05 1 1 1
v -0.25 0.7 0.1 1 1 1
v -0.2353553 0.7353554 0.1 1 1 1
v -0.25 0 0.05 1 1 1
v 0.2353553 0.7353554 0.05 1 1 1
v 0.2353553 0.7353554 0.1 1 1 1
v 0.215 0.5781037 0.225 1 1 1
v 0.16 0.5781037 0.225 1 1 1
v 0.215 0.6081037 0.225 1 1 1
v 0.16 0.6081037 0.225 1 1 1
v 0.15 0.6181037 0.2 1 1 1
v 0.15 0.5681037 0.2 1 1 1
v 0.225 0.6181037 0.2 1 1 1
v 0.225 0.5681037 0.2 1 1 1
v 0.215 0.5031037 0.225 1 1 1
v 0.16 0.5031037 0.225 1 1 1
v 0.215 0.5331037 0.225 1 1 1
v 0.16 0.5331037 0.225 1 1 1
v 0.15 0.5431037 0.2 1 1 1
v 0.15 0.4931037 0.2 1 1 1
v 0.225 0.5431037 0.2 1 1 1
v 0.225 0.4931037 0.2 1 1 1
v 0.215 0.3531037 0.225 1 1 1
v 0.16 0.3531037 0.225 1 1 1
v 0.215 0.3831037 0.225 1 1 1
v 0.16 0.3831037 0.225 1 1 1
v 0.15 0.3931037 0.2 1 1 1
v 0.15 0.3431037 0.2 1 1 1
v 0.225 0.3931037 0.2 1 1 1
v 0.225 0.3431037 0.2 1 1 1
v 0.215 0.4281037 0.225 1 1 1
v 0.16 0.4281037 0.225 1 1 1
v 0.215 0.4581037 0.225 1 1 1
v 0.16 0.4581037 0.225 1 1 1
v 0.15 0.4681037 0.2 1 1 1
v 0.15 0.4181037 0.2 1 1 1
v 0.225 0.4681037 0.2 1 1 1
v 0.225 0.4181037 0.2 1 1 1

vn 0 0 1
vn 0.1950903 0.9807853 0
vn -0.1950903 0.9807853 0
vn 0.9807853 0.1950903 0
vn 1 0 0
vn -0.7071068 0.7071068 0
vn -0.9807853 0.1950903 0
vn 0.7071068 0.7071068 0
vn -1 0 0
vn 0 -1 0
vn 0 0 -1
vn 0 1 0
vn -0.9238795 -0.3826834 0
vn -0.9238795 0.3826834 0
vn 0.3826834 0.9238795 0
vn -0.3826834 0.9238795 0
vn 0.3826834 -0.9238795 0
vn -0.3826834 -0.9238795 0
vn 0.9238795 0.3826834 0
vn 0.9238795 -0.3826834 0
vn -0.5240251 0 0.8517029
vn -0.3361613 0 0.9418045
vn 0.3361613 0 0.9418045
vn 0.5240251 0 0.8517029
vn -0.3830188 0.794611 0.4710519
vn -0.3830188 -0.794611 0.4710519
vn -0.2994053 0.8385498 0.455182
vn 0.3830188 0.794611 0.4710519
vn -0.2994053 -0.8385498 0.455182
vn 0.2994053 0.8385498 0.455182
vn 0.3830188 -0.794611 0.4710519
vn 0.2994053 -0.8385498 0.455182

vt 0.59375 0.475
vt 0.59375 0.4710948
vt 0.59375 0.4616666
vt 0.59375 0.3283333
vt 0.59375 0.3016667
vt 0.59375 0.275
vt 0.59375 0.425
vt 0.59375 0.4183333
vt 0.59375 0.325
vt 0.59375 0.4230474
vt 0.21875 0.05166667
vt 0.21875 0.07833333
vt 0.21875 0.025
vt 0.21875 0.2116666
vt 0.21875 0.2210948
vt 0.21875 0.225
vt 0.46875 0.025
vt 0.46875 0.225
vt 0.46875 0.175
vt 0.46875 0.075
vt 0.46875 0.05357143
vt 0.46875 0.1964286
vt 0.46875 0.2116666
vt 0.46875 0.2210948
vt 0.59375 0.225
vt 0.59375 0.025
vt 0.59375 0.065
vt 0.59375 0.185

usemtl colormap

f 3/2/1 2/1/1 1/1/1
f 3/2/1 4/2/1 2/1/1
f 5/3/1 4/2/1 3/2/1
f 5/3/1 6/3/1 4/2/1
f 5/3/1 7/4/1 6/3/1
f 8/4/1 6/3/1 7/4/1
f 5/3/1 9/5/1 7/4/1
f 10/6/1 9/5/1 5/3/1
f 11/5/1 6/3/1 8/4/1
f 9/5/1 10/6/1 11/5/1
f 11/5/1 12/6/1 6/3/1
f 12/6/1 11/5/1 10/6/1
f 15/7/3 14/7/2 13/7/2
f 14/7/2 15/7/3 1/7/3
f 6/8/4 17/9/5 16/8/4
f 17/9/5 6/8/4 12/9/5
f 18/10/6 1/7/3 15/7/3
f 1/7/3 18/10/6 3/10/6
f 5/8/7 18/10/6 19/8/7
f 18/10/6 5/8/7 3/10/6
f 13/7/2 21/10/8 20/10/8
f 21/10/8 13/7/2 14/7/2
f 21/10/8 16/8/4 20/10/8
f 16/8/4 21/10/8 6/8/4
f 10/9/9 19/8/7 22/9/9
f 19/8/7 10/9/9 5/8/7
f 25/12/1 24/11/1 23/11/1
f 24/11/1 25/12/1 26/12/1
f 11/11/9 25/12/9 23/11/9
f 25/12/9 11/11/9 8/12/9
f 7/12/10 25/12/10 8/12/10
f 25/12/10 7/12/10 26/12/10
f 29/13/9 28/14/7 27/13/9
f 28/14/7 29/13/9 30/14/7
f 33/15/8 32/14/4 31/15/8
f 32/14/4 33/15/8 34/14/4
f 30/14/7 35/15/6 28/14/7
f 35/15/6 30/14/7 36/15/6
f 35/15/6 38/16/3 37/16/3
f 38/16/3 35/15/6 36/15/6
f 28/14/11 39/13/11 27/13/11
f 39/13/11 28/14/11 32/14/11
f 32/14/11 28/14/11 35/15/11
f 32/14/11 35/15/11 31/15/11
f 31/15/11 35/15/11 37/16/11
f 31/15/11 37/16/11 40/16/11
f 40/16/2 33/15/8 31/15/8
f 33/15/8 40/16/2 41/16/2
f 24/11/12 11/11/12 23/11/12
f 11/11/12 24/11/12 9/11/12
f 7/12/5 24/11/5 26/12/5
f 24/11/5 7/12/5 9/11/5
f 10/13/10 42/13/10 12/13/10
f 42/13/10 10/13/10 43/13/10
f 43/13/10 10/13/10 39/13/10
f 39/13/10 10/13/10 27/13/10
f 27/13/10 10/13/10 44/13/10
f 27/13/10 44/13/10 29/13/10
f 34/14/4 39/13/5 32/14/4
f 39/13/5 34/14/4 43/13/5
f 37/16/3 41/16/2 40/16/2
f 41/16/2 37/16/3 38/16/3
f 47/17/10 46/17/10 45/17/10
f 46/17/10 47/17/10 48/17/10
f 46/17/10 48/17/10 49/17/10
f 52/18/12 51/18/12 50/18/12
f 51/18/12 52/18/12 53/18/12
f 53/18/12 52/18/12 54/18/12
f 57/17/9 56/18/9 55/17/9
f 56/18/9 57/17/9 58/18/9
f 61/19/5 60/20/5 59/19/5
f 60/20/5 61/19/5 62/20/5
f 56/18/12 64/18/12 63/18/12
f 64/18/12 56/18/12 58/18/12
f 67/20/9 66/19/9 65/20/9
f 66/19/9 67/20/9 68/19/9
f 61/19/10 66/19/10 68/19/10
f 66/19/10 61/19/10 59/19/10
f 64/18/5 69/17/5 63/18/5
f 69/17/5 64/18/5 70/17/5
f 57/17/10 69/17/10 70/17/10
f 69/17/10 57/17/10 55/17/10
f 60/20/12 67/20/12 65/20/12
f 67/20/12 60/20/12 62/20/12
f 67/20/1 64/18/1 68/19/1
f 68/19/1 64/18/1 61/19/1
f 67/20/1 70/17/1 64/18/1
f 58/18/1 61/19/1 64/18/1
f 70/17/1 67/20/1 57/17/1
f 58/18/1 62/20/1 61/19/1
f 57/17/1 62/20/1 58/18/1
f 62/20/1 57/17/1 67/20/1
f 73/21/13 72/22/14 71/21/13
f 72/22/14 73/21/13 74/22/14
f 77/18/16 76/18/15 75/18/15
f 76/18/15 77/18/16 78/18/16
f 81/17/18 80/17/17 79/17/17
f 80/17/17 81/17/18 82/17/18
f 85/22/19 84/21/20 83/22/19
f 84/21/20 85/22/19 86/21/20
f 86/21/20 80/17/17 84/21/20
f 80/17/17 86/21/20 79/17/17
f 75/18/15 85/22/19 83/22/19
f 85/22/19 75/18/15 76/18/15
f 73/21/13 82/17/18 81/17/18
f 82/17/18 73/21/13 71/21/13
f 74/22/14 77/18/16 72/22/14
f 77/18/16 74/22/14 78/18/16
f 71/21/11 80/17/11 82/17/11
f 80/17/11 71/21/11 84/21/11
f 84/21/11 71/21/11 72/22/11
f 84/21/11 72/22/11 83/22/11
f 83/22/11 72/22/11 77/18/11
f 83/22/11 77/18/11 75/18/11
f 89/18/3 88/18/2 87/18/2
f 88/18/2 89/18/3 90/18/3
f 93/23/4 92/17/5 91/23/4
f 92/17/5 93/23/4 42/17/5
f 96/23/7 95/24/6 94/23/7
f 95/24/6 96/23/7 97/24/6
f 95/24/6 90/18/3 89/18/3
f 90/18/3 95/24/6 97/24/6
f 44/17/9 94/23/7 98/17/9
f 94/23/7 44/17/9 96/23/7
f 100/24/8 91/23/4 99/24/8
f 91/23/4 100/24/8 93/23/4
f 87/18/2 100/24/8 99/24/8
f 100/24/8 87/18/2 88/18/2
f 46/26/21 54/25/22 52/25/21
f 54/25/22 46/26/21 49/26/22
f 49/26/22 53/25/1 54/25/22
f 53/25/1 49/26/22 48/26/1
f 48/26/1 51/25/23 53/25/1
f 51/25/23 48/26/1 47/26/23
f 47/26/23 50/25/24 51/25/23
f 50/25/24 47/26/23 45/26/24
f 103/28/1 102/27/1 101/27/1
f 102/27/1 103/28/1 104/28/1
f 105/25/27 102/27/26 104/28/25
f 103/28/28 105/25/27 104/28/25
f 102/27/26 105/25/27 106/26/29
f 105/25/27 103/28/28 107/25/30
f 106/26/29 101/27/31 102/27/26
f 103/28/28 108/26/32 107/25/30
f 101/27/31 106/26/29 108/26/32
f 108/26/32 103/28/28 101/27/31
f 111/28/1 110/27/1 109/27/1
f 110/27/1 111/28/1 112/28/1
f 113/25/27 110/27/26 112/28/25
f 111/28/28 113/25/27 112/28/25
f 110/27/26 113/25/27 114/26/29
f 113/25/27 111/28/28 115/25/30
f 114/26/29 109/27/31 110/27/26
f 111/28/28 116/26/32 115/25/30
f 109/27/31 114/26/29 116/26/32
f 116/26/32 111/28/28 109/27/31
f 119/28/1 118/27/1 117/27/1
f 118/27/1 119/28/1 120/28/1
f 121/25/27 118/27/26 120/28/25
f 119/28/28 121/25/27 120/28/25
f 118/27/26 121/25/27 122/26/29
f 121/25/27 119/28/28 123/25/30
f 122/26/29 117/27/31 118/27/26
f 119/28/28 124/26/32 123/25/30
f 117/27/31 122/26/29 124/26/32
f 124/26/32 119/28/28 117/27/31
f 127/28/1 126/27/1 125/27/1
f 126/27/1 127/28/1 128/28/1
f 129/25/27 126/27/26 128/28/25
f 127/28/28 129/25/27 128/28/25
f 126/27/26 129/25/27 130/26/29
f 129/25/27 127/28/28 131/25/30
f 130/26/29 125/27/31 126/27/26
f 127/28/28 132/26/32 131/25/30
f 125/27/31 130/26/29 132/26/32
f 132/26/32 127/28/28 125/27/31

g vending-machine




usemtl colormap

f 3/2/1 2/1/1 1/1/1
f 3/2/1 4/2/1 2/1/1
f 5/3/1 4/2/1 3/2/1
f 5/3/1 6/3/1 4/2/1
f 5/3/1 7/4/1 6/3/1
f 8/4/1 6/3/1 7/4/1
f 5/3/1 9/5/1 7/4/1
f 10/6/1 9/5/1 5/3/1
f 11/5/1 6/3/1 8/4/1
f 9/5/1 10/6/1 11/5/1
f 11/5/1 12/6/1 6/3/1
f 12/6/1 11/5/1 10/6/1
f 15/7/3 14/7/2 13/7/2
f 14/7/2 15/7/3 1/7/3
f 6/8/4 17/9/5 16/8/4
f 17/9/5 6/8/4 12/9/5
f 18/10/6 1/7/3 15/7/3
f 1/7/3 18/10/6 3/10/6
f 5/8/7 18/10/6 19/8/7
f 18/10/6 5/8/7 3/10/6
f 13/7/2 21/10/8 20/10/8
f 21/10/8 13/7/2 14/7/2
f 21/10/8 16/8/4 20/10/8
f 16/8/4 21/10/8 6/8/4
f 10/9/9 19/8/7 22/9/9
f 19/8/7 10/9/9 5/8/7
f 25/12/1 24/11/1 23/11/1
f 24/11/1 25/12/1 26/12/1
f 11/11/9 25/12/9 23/11/9
f 25/12/9 11/11/9 8/12/9
f 7/12/10 25/12/10 8/12/10
f 25/12/10 7/12/10 26/12/10
f 29/13/9 28/14/7 27/13/9
f 28/14/7 29/13/9 30/14/7
f 33/15/8 32/14/4 31/15/8
f 32/14/4 33/15/8 34/14/4
f 30/14/7 35/15/6 28/14/7
f 35/15/6 30/14/7 36/15/6
f 35/15/6 38/16/3 37/16/3
f 38/16/3 35/15/6 36/15/6
f 28/14/11 39/13/11 27/13/11
f 39/13/11 28/14/11 32/14/11
f 32/14/11 28/14/11 35/15/11
f 32/14/11 35/15/11 31/15/11
f 31/15/11 35/15/11 37/16/11
f 31/15/11 37/16/11 40/16/11
f 40/16/2 33/15/8 31/15/8
f 33/15/8 40/16/2 41/16/2
f 24/11/12 11/11/12 23/11/12
f 11/11/12 24/11/12 9/11/12
f 7/12/5 24/11/5 26/12/5
f 24/11/5 7/12/5 9/11/5
f 10/13/10 42/13/10 12/13/10
f 42/13/10 10/13/10 43/13/10
f 43/13/10 10/13/10 39/13/10
f 39/13/10 10/13/10 27/13/10
f 27/13/10 10/13/10 44/13/10
f 27/13/10 44/13/10 29/13/10
f 34/14/4 39/13/5 32/14/4
f 39/13/5 34/14/4 43/13/5
f 37/16/3 41/16/2 40/16/2
f 41/16/2 37/16/3 38/16/3
f 47/17/10 46/17/10 45/17/10
f 46/17/10 47/17/10 48/17/10
f 46/17/10 48/17/10 49/17/10
f 52/18/12 51/18/12 50/18/12
f 51/18/12 52/18/12 53/18/12
f 53/18/12 52/18/12 54/18/12
f 57/17/9 56/18/9 55/17/9
f 56/18/9 57/17/9 58/18/9
f 61/19/5 60/20/5 59/19/5
f 60/20/5 61/19/5 62/20/5
f 56/18/12 64/18/12 63/18/12
f 64/18/12 56/18/12 58/18/12
f 67/20/9 66/19/9 65/20/9
f 66/19/9 67/20/9 68/19/9
f 61/19/10 66/19/10 68/19/10
f 66/19/10 61/19/10 59/19/10
f 64/18/5 69/17/5 63/18/5
f 69/17/5 64/18/5 70/17/5
f 57/17/10 69/17/10 70/17/10
f 69/17/10 57/17/10 55/17/10
f 60/20/12 67/20/12 65/20/12
f 67/20/12 60/20/12 62/20/12
f 67/20/1 64/18/1 68/19/1
f 68/19/1 64/18/1 61/19/1
f 67/20/1 70/17/1 64/18/1
f 58/18/1 61/19/1 64/18/1
f 70/17/1 67/20/1 57/17/1
f 58/18/1 62/20/1 61/19/1
f 57/17/1 62/20/1 58/18/1
f 62/20/1 57/17/1 67/20/1
f 73/21/13 72/22/14 71/21/13
f 72/22/14 73/21/13 74/22/14
f 77/18/16 76/18/15 75/18/15
f 76/18/15 77/18/16 78/18/16
f 81/17/18 80/17/17 79/17/17
f 80/17/17 81/17/18 82/17/18
f 85/22/19 84/21/20 83/22/19
f 84/21/20 85/22/19 86/21/20
f 86/21/20 80/17/17 84/21/20
f 80/17/17 86/21/20 79/17/17
f 75/18/15 85/22/19 83/22/19
f 85/22/19 75/18/15 76/18/15
f 73/21/13 82/17/18 81/17/18
f 82/17/18 73/21/13 71/21/13
f 74/22/14 77/18/16 72/22/14
f 77/18/16 74/22/14 78/18/16
f 71/21/11 80/17/11 82/17/11
f 80/17/11 71/21/11 84/21/11
f 84/21/11 71/21/11 72/22/11
f 84/21/11 72/22/11 83/22/11
f 83/22/11 72/22/11 77/18/11
f 83/22/11 77/18/11 75/18/11
f 89/18/3 88/18/2 87/18/2
f 88/18/2 89/18/3 90/18/3
f 93/23/4 92/17/5 91/23/4
f 92/17/5 93/23/4 42/17/5
f 96/23/7 95/24/6 94/23/7
f 95/24/6 96/23/7 97/24/6
f 95/24/6 90/18/3 89/18/3
f 90/18/3 95/24/6 97/24/6
f 44/17/9 94/23/7 98/17/9
f 94/23/7 44/17/9 96/23/7
f 100/24/8 91/23/4 99/24/8
f 91/23/4 100/24/8 93/23/4
f 87/18/2 100/24/8 99/24/8
f 100/24/8 87/18/2 88/18/2
f 46/26/21 54/25/22 52/25/21
f 54/25/22 46/26/21 49/26/22
f 49/26/22 53/25/1 54/25/22
f 53/25/1 49/26/22 48/26/1
f 48/26/1 51/25/23 53/25/1
f 51/25/23 48/26/1 47/26/23
f 47/26/23 50/25/24 51/25/23
f 50/25/24 47/26/23 45/26/24
f 103/28/1 102/27/1 101/27/1
f 102/27/1 103/28/1 104/28/1
f 105/25/27 102/27/26 104/28/25
f 103/28/28 105/25/27 104/28/25
f 102/27/26 105/25/27 106/26/29
f 105/25/27 103/28/28 107/25/30
f 106/26/29 101/27/31 102/27/26
f 103/28/28 108/26/32 107/25/30
f 101/27/31 106/26/29 108/26/32
f 108/26/32 103/28/28 101/27/31
f 111/28/1 110/27/1 109/27/1
f 110/27/1 111/28/1 112/28/1
f 113/25/27 110/27/26 112/28/25
f 111/28/28 113/25/27 112/28/25
f 110/27/26 113/25/27 114/26/29
f 113/25/27 111/28/28 115/25/30
f 114/26/29 109/27/31 110/27/26
f 111/28/28 116/26/32 115/25/30
f 109/27/31 114/26/29 116/26/32
f 116/26/32 111/28/28 109/27/31
f 119/28/1 118/27/1 117/27/1
f 118/27/1 119/28/1 120/28/1
f 121/25/27 118/27/26 120/28/25
f 119/28/28 121/25/27 120/28/25
f 118/27/26 121/25/27 122/26/29
f 121/25/27 119/28/28 123/25/30
f 122/26/29 117/27/31 118/27/26
f 119/28/28 124/26/32 123/25/30
f 117/27/31 122/26/29 124/26/32
f 124/26/32 119/28/28 117/27/31
f 127/28/1 126/27/1 125/27/1
f 126/27/1 127/28/1 128/28/1
f 129/25/27 126/27/26 128/28/25
f 127/28/28 129/25/27 128/28/25
f 126/27/26 129/25/27 130/26/29
f 129/25/27 127/28/28 131/25/30
f 130/26/29 125/27/31 126/27/26
f 127/28/28 132/26/32 131/25/30
f 125/27/31 130/26/29 132/26/32
f 132/26/32 127/28/28 125/27/31

