# Created by Kenney (www.kenney.nl)

mtllib wall-door-rotate.mtl

g wall-door-rotate

v -0.09999999 0.15 0.2 1 1 1
v 0 0.15 0.2 1 1 1
v -0.09999999 0.2 0.25 1 1 1
v 0 0.2 0.25 1 1 1
v -0.9 0.15 0.2 1 1 1
v -0.9 0.2 0.25 1 1 1
v -1 0.15 0.2 1 1 1
v -1 0.2 0.25 1 1 1
v -1 0 0.2 1 1 1
v -0.9 7.205089E-11 0.2 1 1 1
v 0 0 0.2 1 1 1
v -0.09999999 7.20509E-11 0.2 1 1 1
v -0.09999999 1.984976E-09 0.8 1 1 1
v -0.09999999 0.2 0.75 1 1 1
v -0.09999999 0.15 0.8 1 1 1
v -0.9 1.457907E-09 0.8 1 1 1
v -1 2.44538E-09 0.8 1 1 1
v -0.9 0.15 0.8 1 1 1
v -1 0.15 0.8 1 1 1
v -0.9 0.2 0.75 1 1 1
v 0 3.763054E-09 0.8 1 1 1
v 0 0.15 0.8 1 1 1
v -1 0.2 0.75 1 1 1
v 0 0.2 0.75 1 1 1

vn 0 0.3826834 -0.9238795
vn 0 0.7071068 -0.7071068
vn 0 0 -1
vn -1 0 0
vn 0 0 1
vn 0 0.3826834 0.9238795
vn 1 0 0
vn 0 0.7071068 0.7071068
vn 0 0.7071068 0.7071067

vt 0.46875 0.175
vt 0.46875 0.225
vt 0.46875 0.025
vt 0.21875 0.025
vt 0.21875 0.175
vt 0.21875 0.025
vt 0.21875 0.225
vt 0.21875 0.025

usemtl colormap

f 3/2/2 2/1/1 1/1/1
f 2/1/1 3/2/2 4/2/2
f 7/1/1 6/2/2 5/1/1
f 6/2/2 7/1/1 8/2/2
f 7/1/1 10/3/3 9/3/3
f 10/3/3 7/1/1 5/1/1
f 12/3/3 2/1/1 11/3/3
f 2/1/1 12/3/3 1/1/1
f 13/6/4 1/5/4 12/4/4
f 1/5/4 13/6/4 3/7/4
f 3/7/4 13/6/4 14/7/4
f 14/7/4 13/6/4 15/5/4
f 18/5/6 17/6/5 16/6/5
f 17/6/5 18/5/6 19/5/6
f 5/5/7 16/6/7 10/4/7
f 16/6/7 5/5/7 6/7/7
f 16/6/7 6/7/7 20/7/7
f 16/6/7 20/7/7 18/5/7
f 21/8/5 15/5/6 13/6/5
f 15/5/6 21/8/5 22/5/6
f 23/7/8 18/5/6 20/7/8
f 18/5/6 23/7/8 19/5/6
f 14/7/9 22/5/6 24/7/9
f 22/5/6 14/7/9 15/5/6

g wall-door-rotate




usemtl colormap

f 3/2/2 2/1/1 1/1/1
f 2/1/1 3/2/2 4/2/2
f 7/1/1 6/2/2 5/1/1
f 6/2/2 7/1/1 8/2/2
f 7/1/1 10/3/3 9/3/3
f 10/3/3 7/1/1 5/1/1
f 12/3/3 2/1/1 11/3/3
f 2/1/1 12/3/3 1/1/1
f 13/6/4 1/5/4 12/4/4
f 1/5/4 13/6/4 3/7/4
f 3/7/4 13/6/4 14/7/4
f 14/7/4 13/6/4 15/5/4
f 18/5/6 17/6/5 16/6/5
f 17/6/5 18/5/6 19/5/6
f 5/5/7 16/6/7 10/4/7
f 16/6/7 5/5/7 6/7/7
f 16/6/7 6/7/7 20/7/7
f 16/6/7 20/7/7 18/5/7
f 21/8/5 15/5/6 13/6/5
f 15/5/6 21/8/5 22/5/6
f 23/7/8 18/5/6 20/7/8
f 18/5/6 23/7/8 19/5/6
f 14/7/9 22/5/6 24/7/9
f 22/5/6 14/7/9 15/5/6

g Group

v -1 0 0.2 1 1 1
v -1 0.15 0.2 1 1 1
v -1 1 0.75 1 1 1
v -1 1 0.25 1 1 1
v -5.61066E-11 1 0.25 1 1 1
v -5.61066E-11 0.2 0.25 1 1 1
v -5.555072E-11 1 0.75 1 1 1
v -8.843667E-11 3.763054E-09 0.8 1 1 1
v -9.329261E-11 0.15 0.8 1 1 1
v -5.616001E-11 0 0.2 1 1 1
v -5.616001E-11 0.15 0.2 1 1 1
v -0.1 0.9 0.25 1 1 1
v -0.1 0.9 0.75 1 1 1
v -0.1 0.2 0.25 1 1 1
v -0.1 0.2 0.75 1 1 1
v -0.9 0.9 0.25 1 1 1
v -0.9 0.9 0.75 1 1 1
v -0.1 7.20509E-11 0.2 1 1 1
v -0.1 1.984976E-09 0.8 1 1 1
v -0.9 7.205089E-11 0.2 1 1 1

vn 0 1 0
vn 0 -1 0

vt 0.09375 0.025
vt 0.09375 0.055
vt 0.09375 0.065
vt 0.09375 0.225
vt 0.09375 0.205
vt 0.21875 0.065
vt 0.21875 0.205
vt 0.34375 0.315
vt 0.34375 0.475
vt 0.34375 0.455

usemtl colormap

f 17/9/4 26/10/4 25/9/4
f 26/10/4 17/9/4 8/11/4
f 8/11/4 17/9/4 23/11/4
f 23/11/4 17/9/4 19/10/4
f 8/11/4 23/11/4 27/12/4
f 27/12/4 28/12/4 8/11/4
f 31/12/7 30/11/7 29/12/7
f 24/11/7 30/11/7 31/12/7
f 32/9/7 30/11/7 24/11/7
f 32/9/7 24/11/7 33/10/7
f 34/9/7 30/11/7 32/9/7
f 30/11/7 34/9/7 35/10/7
f 29/12/10 27/12/10 31/12/10
f 27/12/10 29/12/10 28/12/10
f 38/11/4 37/13/4 36/13/4
f 37/13/4 38/11/4 39/11/4
f 41/13/7 6/11/7 40/13/7
f 6/11/7 41/13/7 20/11/7
f 37/13/11 40/13/11 36/13/11
f 40/13/11 37/13/11 41/13/11
f 32/4/11 42/4/11 34/4/11
f 42/4/11 32/4/11 43/4/11
f 16/4/11 25/4/11 44/4/11
f 25/4/11 16/4/11 17/4/11
f 28/7/3 6/14/3 8/14/3
f 6/14/3 28/7/3 40/15/3
f 40/15/3 28/7/3 36/15/3
f 29/7/3 36/15/3 28/7/3
f 30/14/3 36/15/3 29/7/3
f 36/15/3 30/14/3 38/14/3
f 31/17/5 39/16/5 24/16/5
f 39/16/5 31/17/5 37/18/5
f 37/18/5 31/17/5 41/18/5
f 27/17/5 41/18/5 31/17/5
f 23/16/5 41/18/5 27/17/5
f 41/18/5 23/16/5 20/16/5

g door-right

v -0.5 0.9 0.55 1 1 1
v -0.5 0.9 0.65 1 1 1
v -0.1 0.9 0.55 1 1 1
v -0.1 0.9 0.65 1 1 1
v -0.45 0.8 0.55 1 1 1
v -0.45 0.8 0.65 1 1 1
v -0.45 0.1 0.55 1 1 1
v -0.45 0.1 0.65 1 1 1
v -0.2 0.8 0.65 1 1 1
v -0.2 0.8 0.55 1 1 1
v -0.2 0.1 0.55 1 1 1
v -0.2 0.1 0.65 1 1 1
v -0.5 9.246137E-10 0.65 1 1 1
v -0.5 6.05344E-10 0.55 1 1 1
v -0.1 9.246137E-10 0.65 1 1 1
v -0.1 6.05344E-10 0.55 1 1 1
v -0.07500009 0.1 0.525 1 1 1
v -0.1500001 0.1 0.525 1 1 1
v -0.07500009 0.2 0.525 1 1 1
v -0.1500001 0.2 0.525 1 1 1
v -0.1500001 0.1 0.675 1 1 1
v -0.07500009 0.1 0.675 1 1 1
v -0.1500001 0.2 0.675 1 1 1
v -0.07500009 0.2 0.675 1 1 1
v -0.45 0.2367587 0.65 1 1 1
v -0.4 0.2367587 0.65 1 1 1
v -0.45 0.4367587 0.65 1 1 1
v -0.4 0.4367587 0.65 1 1 1
v -0.4 0.2367587 0.7 1 1 1
v -0.45 0.2367587 0.7 1 1 1
v -0.4 0.4367587 0.7 1 1 1
v -0.45 0.4367587 0.7 1 1 1
v -0.4 0.2014034 0.6853554 1 1 1
v -0.4 0.1867587 0.65 1 1 1
v -0.45 0.2014034 0.6853554 1 1 1
v -0.45 0.1867587 0.65 1 1 1
v -0.4 0.472114 0.6853554 1 1 1
v -0.45 0.472114 0.6853554 1 1 1
v -0.4 0.4867587 0.65 1 1 1
v -0.45 0.4867587 0.65 1 1 1
v -0.4 0.1867587 0.55 1 1 1
v -0.45 0.1867587 0.55 1 1 1
v -0.4 0.2367587 0.55 1 1 1
v -0.45 0.2367587 0.55 1 1 1
v -0.45 0.2367587 0.5 1 1 1
v -0.4 0.2367587 0.5 1 1 1
v -0.45 0.4367587 0.5 1 1 1
v -0.4 0.4367587 0.5 1 1 1
v -0.4 0.2014034 0.5146447 1 1 1
v -0.45 0.2014034 0.5146447 1 1 1
v -0.45 0.4367587 0.55 1 1 1
v -0.45 0.4867587 0.55 1 1 1
v -0.45 0.472114 0.5146447 1 1 1
v -0.4 0.472114 0.5146447 1 1 1
v -0.4 0.4367587 0.55 1 1 1
v -0.4 0.4867587 0.55 1 1 1
v -0.07500009 0.7 0.525 1 1 1
v -0.1500001 0.7 0.525 1 1 1
v -0.07500009 0.8 0.525 1 1 1
v -0.1500001 0.8 0.525 1 1 1
v -0.1500001 0.7 0.675 1 1 1
v -0.07500009 0.7 0.675 1 1 1
v -0.1500001 0.8 0.675 1 1 1
v -0.07500009 0.8 0.675 1 1 1
v -0.1999999 0.1 0.5500001 1 1 1
v -0.4499999 0.1 0.5500001 1 1 1
v -0.1999999 0.8 0.5500001 1 1 1
v -0.4499999 0.8 0.5500001 1 1 1
v -0.4499999 0.1 0.6 1 1 1
v -0.1999999 0.1 0.6 1 1 1
v -0.4499999 0.8 0.6 1 1 1
v -0.1999999 0.8 0.6 1 1 1

vn 0.8944272 -0.4472136 0
vn 0.8944272 0.4472136 0
vn -0.8944272 -0.4472136 0
vn -0.8944272 0.4472136 0
vn -0.7071068 0 -0.7071068
vn -0.7071068 0 0.7071068
vn 0 -0.1950903 0.9807853
vn 0 0.1950903 0.9807853
vn 0 -0.7071068 0.7071068
vn 0 -0.9807853 0.1950903
vn 0 0.9807853 0.1950903
vn 0 -0.9807853 -0.1950903
vn 0 -0.1950903 -0.9807853
vn 0 0.1950903 -0.9807853
vn 0 -0.7071068 -0.7071068
vn 0 0.9807853 -0.1950903

vt 0.21875 0.2027778
vt 0.21875 0.04722222
vt 0.46875 0.05833333
vt 0.46875 0.1916666
vt 0.46875 0.03476311
vt 0.46875 0.2152369
vt 0.96875 0.375
vt 0.96875 0.475

usemtl colormap

f 52/20/5 59/4/5 56/20/5
f 48/7/5 56/20/5 59/4/5
f 53/19/5 56/20/5 48/7/5
f 59/4/5 52/20/5 57/4/5
f 46/7/5 53/19/5 48/7/5
f 46/7/5 57/4/5 52/20/5
f 53/19/5 46/7/5 50/19/5
f 50/19/5 46/7/5 52/20/5
f 55/20/3 58/4/3 51/20/3
f 45/7/3 51/20/3 58/4/3
f 49/19/3 51/20/3 45/7/3
f 58/4/3 55/20/3 60/4/3
f 47/7/3 49/19/3 45/7/3
f 47/7/3 60/4/3 55/20/3
f 49/19/3 47/7/3 54/19/3
f 54/19/3 47/7/3 55/20/3
f 57/4/4 46/7/4 58/4/4
f 45/7/4 58/4/4 46/7/4
f 59/4/7 60/4/7 48/7/7
f 47/7/7 48/7/7 60/4/7
f 60/4/11 59/4/11 58/4/11
f 57/4/11 58/4/11 59/4/11
f 56/20/15 55/20/15 52/20/13
f 51/20/13 52/20/13 55/20/15
f 56/20/15 53/19/14 55/20/15
f 54/19/14 55/20/15 53/19/14
f 54/19/14 53/19/14 49/19/12
f 50/19/12 49/19/12 53/19/14
f 52/20/13 51/20/13 50/19/12
f 49/19/12 50/19/12 51/20/13
f 48/7/10 47/7/10 46/7/10
f 45/7/10 46/7/10 47/7/10
f 61/3/11 66/3/11 62/3/11
f 65/3/11 62/3/11 66/3/11
f 65/3/17 67/2/17 62/3/16
f 64/2/16 62/3/16 67/2/17
f 68/2/10 63/2/10 67/2/10
f 64/2/10 67/2/10 63/2/10
f 68/2/7 66/3/7 63/2/7
f 61/3/7 63/2/7 66/3/7
f 68/2/5 67/2/17 66/3/5
f 65/3/17 66/3/5 67/2/17
f 64/2/16 63/2/3 62/3/16
f 61/3/3 62/3/16 63/2/3
f 71/22/3 70/21/3 69/21/3
f 70/21/3 71/22/3 72/22/3
f 75/22/19 74/21/18 73/21/18
f 74/21/18 75/22/19 76/22/19
f 79/23/20 78/3/21 77/23/20
f 78/3/21 79/23/20 80/3/21
f 81/24/8 76/22/19 75/22/19
f 76/22/19 81/24/8 82/24/8
f 73/21/18 79/23/20 77/23/20
f 79/23/20 73/21/18 74/21/18
f 84/2/22 81/24/8 83/2/22
f 81/24/8 84/2/22 82/24/8
f 80/3/21 85/3/23 78/3/21
f 85/3/23 80/3/21 86/3/23
f 88/21/10 70/21/10 87/21/10
f 70/21/10 88/21/10 69/21/10
f 91/22/25 90/21/24 89/21/24
f 90/21/24 91/22/25 92/22/25
f 86/3/23 93/23/26 85/3/23
f 93/23/26 86/3/23 94/23/26
f 89/21/24 93/23/26 94/23/26
f 93/23/26 89/21/24 90/21/24
f 82/24/4 74/21/4 76/22/4
f 82/24/4 79/23/4 74/21/4
f 84/2/4 79/23/4 82/24/4
f 71/22/4 79/23/4 84/2/4
f 69/21/4 79/23/4 71/22/4
f 69/21/4 80/3/4 79/23/4
f 88/21/4 80/3/4 69/21/4
f 84/2/4 95/22/4 71/22/4
f 80/3/4 88/21/4 86/3/4
f 95/22/4 86/3/4 88/21/4
f 96/2/4 95/22/4 84/2/4
f 96/2/4 86/3/4 95/22/4
f 96/2/4 94/23/4 86/3/4
f 97/24/4 94/23/4 96/2/4
f 91/22/4 94/23/4 97/24/4
f 94/23/4 91/22/4 89/21/4
f 97/24/2 92/22/25 91/22/25
f 92/22/25 97/24/2 98/24/2
f 99/22/5 88/21/5 87/21/5
f 88/21/5 99/22/5 95/22/5
f 73/21/7 81/24/7 75/22/7
f 77/23/7 81/24/7 73/21/7
f 77/23/7 83/2/7 81/24/7
f 78/3/7 83/2/7 77/23/7
f 70/21/7 83/2/7 78/3/7
f 85/3/7 70/21/7 78/3/7
f 72/22/7 83/2/7 70/21/7
f 85/3/7 87/21/7 70/21/7
f 99/22/7 83/2/7 72/22/7
f 85/3/7 99/22/7 87/21/7
f 83/2/7 99/22/7 100/2/7
f 85/3/7 100/2/7 99/22/7
f 93/23/7 100/2/7 85/3/7
f 93/23/7 98/24/7 100/2/7
f 90/21/7 98/24/7 93/23/7
f 98/24/7 90/21/7 92/22/7
f 97/24/2 100/2/27 98/24/2
f 100/2/27 97/24/2 96/2/27
f 96/2/27 83/2/22 100/2/27
f 83/2/22 96/2/27 84/2/22
f 71/22/11 99/22/11 72/22/11
f 99/22/11 71/22/11 95/22/11
f 101/3/11 106/3/11 102/3/11
f 105/3/11 102/3/11 106/3/11
f 105/3/17 107/2/17 102/3/16
f 104/2/16 102/3/16 107/2/17
f 108/2/10 103/2/10 107/2/10
f 104/2/10 107/2/10 103/2/10
f 108/2/7 106/3/7 103/2/7
f 101/3/7 103/2/7 106/3/7
f 108/2/5 107/2/17 106/3/5
f 105/3/17 106/3/5 107/2/17
f 104/2/16 103/2/3 102/3/16
f 101/3/3 102/3/16 103/2/3
f 112/26/3 111/26/3 110/25/3
f 109/25/3 110/25/3 111/26/3
f 116/26/5 115/26/5 114/25/5
f 113/25/5 114/25/5 115/26/5

g door-left

v -0.5 9.246137E-10 0.65 1 1 1
v -0.5 6.05344E-10 0.55 1 1 1
v -0.9 9.246137E-10 0.65 1 1 1
v -0.9 6.05344E-10 0.55 1 1 1
v -0.5 0.9 0.55 1 1 1
v -0.5 0.9 0.65 1 1 1
v -0.9 0.9 0.55 1 1 1
v -0.9 0.9 0.65 1 1 1
v -0.55 0.8 0.65 1 1 1
v -0.55 0.8 0.55 1 1 1
v -0.8 0.8 0.65 1 1 1
v -0.8 0.8 0.55 1 1 1
v -0.8 0.1 0.55 1 1 1
v -0.8 0.1 0.65 1 1 1
v -0.55 0.1 0.55 1 1 1
v -0.55 0.1 0.65 1 1 1
v -0.9249999 0.7 0.525 1 1 1
v -0.8499999 0.7 0.525 1 1 1
v -0.9249999 0.8 0.525 1 1 1
v -0.8499999 0.8 0.525 1 1 1
v -0.8499999 0.7 0.675 1 1 1
v -0.9249999 0.7 0.675 1 1 1
v -0.8499999 0.8 0.675 1 1 1
v -0.9249999 0.8 0.675 1 1 1
v -0.9249999 0.1 0.525 1 1 1
v -0.8499999 0.1 0.525 1 1 1
v -0.9249999 0.2 0.525 1 1 1
v -0.8499999 0.2 0.525 1 1 1
v -0.8499999 0.1 0.675 1 1 1
v -0.9249999 0.1 0.675 1 1 1
v -0.8499999 0.2 0.675 1 1 1
v -0.9249999 0.2 0.675 1 1 1
v -0.5999999 0.2367587 0.65 1 1 1
v -0.55 0.2367587 0.65 1 1 1
v -0.5999999 0.4367587 0.65 1 1 1
v -0.55 0.4367587 0.65 1 1 1
v -0.55 0.2367587 0.7 1 1 1
v -0.5999999 0.2367587 0.7 1 1 1
v -0.55 0.4367587 0.7 1 1 1
v -0.5999999 0.4367587 0.7 1 1 1
v -0.55 0.2014034 0.6853554 1 1 1
v -0.55 0.1867587 0.65 1 1 1
v -0.5999999 0.2014034 0.6853554 1 1 1
v -0.5999999 0.1867587 0.65 1 1 1
v -0.55 0.472114 0.6853554 1 1 1
v -0.5999999 0.472114 0.6853554 1 1 1
v -0.55 0.4867587 0.65 1 1 1
v -0.5999999 0.4867587 0.65 1 1 1
v -0.55 0.1867587 0.55 1 1 1
v -0.5999999 0.1867587 0.55 1 1 1
v -0.55 0.2367587 0.55 1 1 1
v -0.5999999 0.2367587 0.55 1 1 1
v -0.5999999 0.2367587 0.5 1 1 1
v -0.55 0.2367587 0.5 1 1 1
v -0.5999999 0.4367587 0.5 1 1 1
v -0.55 0.4367587 0.5 1 1 1
v -0.55 0.2014034 0.5146447 1 1 1
v -0.5999999 0.2014034 0.5146447 1 1 1
v -0.5999999 0.4367587 0.55 1 1 1
v -0.5999999 0.4867587 0.55 1 1 1
v -0.5999999 0.472114 0.5146447 1 1 1
v -0.55 0.472114 0.5146447 1 1 1
v -0.55 0.4367587 0.55 1 1 1
v -0.55 0.4867587 0.55 1 1 1
v -0.8000001 0.1 0.5500001 1 1 1
v -0.5500001 0.1 0.5500001 1 1 1
v -0.8000001 0.8 0.5500001 1 1 1
v -0.5500001 0.8 0.5500001 1 1 1
v -0.5500001 0.1 0.6 1 1 1
v -0.8000001 0.1 0.6 1 1 1
v -0.5500001 0.8 0.6 1 1 1
v -0.8000001 0.8 0.6 1 1 1

vn 0.7071068 0 -0.7071068
vn 0.7071068 0 0.7071068


usemtl colormap

f 119/4/11 118/4/11 117/4/11
f 118/4/11 119/4/11 120/4/11
f 123/7/10 122/7/10 121/7/10
f 122/7/10 123/7/10 124/7/10
f 120/4/4 124/7/4 123/7/4
f 124/7/4 120/4/4 119/4/4
f 122/7/7 118/4/7 121/7/7
f 118/4/7 122/7/7 117/4/7
f 127/19/12 126/19/14 125/19/14
f 126/19/14 127/19/12 128/19/12
f 127/19/12 129/20/13 128/19/12
f 129/20/13 127/19/12 130/20/13
f 129/20/13 132/20/15 131/20/15
f 132/20/15 129/20/13 130/20/13
f 131/20/15 125/19/14 126/19/14
f 125/19/14 131/20/15 132/20/15
f 129/20/3 123/7/3 128/19/3
f 128/19/3 123/7/3 126/19/3
f 129/20/3 120/4/3 123/7/3
f 121/7/3 126/19/3 123/7/3
f 120/4/3 129/20/3 118/4/3
f 121/7/3 131/20/3 126/19/3
f 118/4/3 131/20/3 121/7/3
f 131/20/3 118/4/3 129/20/3
f 117/4/5 132/20/5 119/4/5
f 132/20/5 117/4/5 122/7/5
f 130/20/5 119/4/5 132/20/5
f 132/20/5 122/7/5 125/19/5
f 119/4/5 130/20/5 124/7/5
f 125/19/5 122/7/5 127/19/5
f 124/7/5 130/20/5 127/19/5
f 124/7/5 127/19/5 122/7/5
f 135/2/3 134/3/28 133/3/3
f 134/3/28 135/2/3 136/2/28
f 139/2/29 138/3/5 137/3/29
f 138/3/5 139/2/29 140/2/5
f 138/3/4 135/2/4 133/3/4
f 135/2/4 138/3/4 140/2/4
f 135/2/10 139/2/10 136/2/10
f 139/2/10 135/2/10 140/2/10
f 139/2/29 134/3/28 136/2/28
f 134/3/28 139/2/29 137/3/29
f 138/3/11 134/3/11 137/3/11
f 134/3/11 138/3/11 133/3/11
f 143/2/3 142/3/28 141/3/3
f 142/3/28 143/2/3 144/2/28
f 147/2/29 146/3/5 145/3/29
f 146/3/5 147/2/29 148/2/5
f 146/3/4 143/2/4 141/3/4
f 143/2/4 146/3/4 148/2/4
f 143/2/10 147/2/10 144/2/10
f 147/2/10 143/2/10 148/2/10
f 147/2/29 142/3/28 144/2/28
f 142/3/28 147/2/29 145/3/29
f 146/3/11 142/3/11 145/3/11
f 142/3/11 146/3/11 141/3/11
f 151/22/3 150/21/3 149/21/3
f 150/21/3 151/22/3 152/22/3
f 155/22/19 154/21/18 153/21/18
f 154/21/18 155/22/19 156/22/19
f 159/23/20 158/3/21 157/23/20
f 158/3/21 159/23/20 160/3/21
f 161/24/8 156/22/19 155/22/19
f 156/22/19 161/24/8 162/24/8
f 153/21/18 159/23/20 157/23/20
f 159/23/20 153/21/18 154/21/18
f 164/2/22 161/24/8 163/2/22
f 161/24/8 164/2/22 162/24/8
f 160/3/21 165/3/23 158/3/21
f 165/3/23 160/3/21 166/3/23
f 168/21/10 150/21/10 167/21/10
f 150/21/10 168/21/10 149/21/10
f 171/22/25 170/21/24 169/21/24
f 170/21/24 171/22/25 172/22/25
f 166/3/23 173/23/26 165/3/23
f 173/23/26 166/3/23 174/23/26
f 169/21/24 173/23/26 174/23/26
f 173/23/26 169/21/24 170/21/24
f 162/24/4 154/21/4 156/22/4
f 162/24/4 159/23/4 154/21/4
f 164/2/4 159/23/4 162/24/4
f 151/22/4 159/23/4 164/2/4
f 149/21/4 159/23/4 151/22/4
f 149/21/4 160/3/4 159/23/4
f 168/21/4 160/3/4 149/21/4
f 164/2/4 175/22/4 151/22/4
f 160/3/4 168/21/4 166/3/4
f 175/22/4 166/3/4 168/21/4
f 176/2/4 175/22/4 164/2/4
f 176/2/4 166/3/4 175/22/4
f 176/2/4 174/23/4 166/3/4
f 177/24/4 174/23/4 176/2/4
f 171/22/4 174/23/4 177/24/4
f 174/23/4 171/22/4 169/21/4
f 177/24/2 172/22/25 171/22/25
f 172/22/25 177/24/2 178/24/2
f 179/22/5 168/21/5 167/21/5
f 168/21/5 179/22/5 175/22/5
f 153/21/7 161/24/7 155/22/7
f 157/23/7 161/24/7 153/21/7
f 157/23/7 163/2/7 161/24/7
f 158/3/7 163/2/7 157/23/7
f 150/21/7 163/2/7 158/3/7
f 165/3/7 150/21/7 158/3/7
f 152/22/7 163/2/7 150/21/7
f 165/3/7 167/21/7 150/21/7
f 179/22/7 163/2/7 152/22/7
f 165/3/7 179/22/7 167/21/7
f 163/2/7 179/22/7 180/2/7
f 165/3/7 180/2/7 179/22/7
f 173/23/7 180/2/7 165/3/7
f 173/23/7 178/24/7 180/2/7
f 170/21/7 178/24/7 173/23/7
f 178/24/7 170/21/7 172/22/7
f 177/24/2 180/2/27 178/24/2
f 180/2/27 177/24/2 176/2/27
f 176/2/27 163/2/22 180/2/27
f 163/2/22 176/2/27 164/2/22
f 151/22/11 179/22/11 152/22/11
f 179/22/11 151/22/11 175/22/11
f 183/26/3 182/25/3 181/25/3
f 182/25/3 183/26/3 184/26/3
f 187/26/5 186/25/5 185/25/5
f 186/25/5 187/26/5 188/26/5

