# Created by Kenney (www.kenney.nl)

mtllib wall-window.mtl

g wall-window

v -0.5 0 -0.3 1 1 1
v -0.5 0.15 -0.3 1 1 1
v -0.5 2.44538E-09 0.3 1 1 1
v -0.5 0.2 -0.25 1 1 1
v -0.5 0.2 0.25 1 1 1
v -0.5 0.15 0.3 1 1 1
v -0.5 1 0.25 1 1 1
v -0.5 1 -0.25 1 1 1
v 0.5 1 -0.25 1 1 1
v 0.5 0.2 -0.25 1 1 1
v 0.5 1 0.25 1 1 1
v 0.5 0.2 0.25 1 1 1
v 0.5 3.763054E-09 0.3 1 1 1
v 0.5 0.15 0.3 1 1 1
v 0.5 0 -0.3 1 1 1
v 0.5 0.15 -0.3 1 1 1
v 0.4 0.9 -0.25 1 1 1
v 0.4 0.9 0.25 1 1 1
v 0.4 0.2 -0.25 1 1 1
v 0.4 0.2 0.25 1 1 1
v -0.4 0.9 -0.25 1 1 1
v -0.4 0.2 -0.25 1 1 1
v -0.4 0.9 0.25 1 1 1
v -0.4 0.2 0.25 1 1 1
v 0.4 7.20509E-11 -0.3 1 1 1
v 0.4 1.984976E-09 0.3 1 1 1
v -0.4 7.205089E-11 -0.3 1 1 1
v -0.4 1.457907E-09 0.3 1 1 1
v 0.4 0.15 -0.3 1 1 1
v 0.4 0.15 0.3 1 1 1
v -0.4 0.15 0.3 1 1 1
v -0.4 0.15 -0.3 1 1 1
v 0.4 9.578089E-10 0.15 1 1 1
v 0.4 0 -0.15 1 1 1
v -0.4 1.013095E-09 0.15 1 1 1
v -0.4 5.52861E-11 -0.15 1 1 1
v -0.3 0.8 -0.15 1 1 1
v -0.3 0.1 -0.15 1 1 1
v -0.3 0.8 0.15 1 1 1
v -0.3 0.1 0.15 1 1 1
v 0.3 0.8 -0.15 1 1 1
v 0.3 0.8 0.15 1 1 1
v 0.3 0.1 -0.15 1 1 1
v 0.3 0.1 0.15 1 1 1
v 0.4 0.9 -0.15 1 1 1
v -0.4 0.9 -0.15 1 1 1
v 0.4 0.9 0.15 1 1 1
v -0.4 0.9 0.15 1 1 1
v 0.4375 0.1 -0.175 1 1 1
v 0.3625 0.1 -0.175 1 1 1
v 0.4375 0.2 -0.175 1 1 1
v 0.3625 0.2 -0.175 1 1 1
v 0.3625 0.1 0.175 1 1 1
v 0.4375 0.1 0.175 1 1 1
v 0.3625 0.2 0.175 1 1 1
v 0.4375 0.2 0.175 1 1 1
v -0.4375 0.7 -0.175 1 1 1
v -0.3625 0.7 -0.175 1 1 1
v -0.4375 0.8 -0.175 1 1 1
v -0.3625 0.8 -0.175 1 1 1
v -0.3625 0.7 0.175 1 1 1
v -0.4375 0.7 0.175 1 1 1
v -0.3625 0.8 0.175 1 1 1
v -0.4375 0.8 0.175 1 1 1
v -0.4375 0.1 -0.175 1 1 1
v -0.3625 0.1 -0.175 1 1 1
v -0.4375 0.2 -0.175 1 1 1
v -0.3625 0.2 -0.175 1 1 1
v -0.3625 0.1 0.175 1 1 1
v -0.4375 0.1 0.175 1 1 1
v -0.3625 0.2 0.175 1 1 1
v -0.4375 0.2 0.175 1 1 1
v 0.4375 0.7 -0.175 1 1 1
v 0.3625 0.7 -0.175 1 1 1
v 0.4375 0.8 -0.175 1 1 1
v 0.3625 0.8 -0.175 1 1 1
v 0.3625 0.7 0.175 1 1 1
v 0.4375 0.7 0.175 1 1 1
v 0.3625 0.8 0.175 1 1 1
v 0.4375 0.8 0.175 1 1 1

vn -1 0 0
vn 1 0 0
vn 0 1 0
vn 0 -1 0
vn 0 0 -1
vn 0 0 1
vn 0 0.3826834 0.9238795
vn 0 0.7071068 0.7071068
vn 0 0.7071068 0.7071067
vn 0.7071068 -0.7071068 0
vn 0.7071068 0.7071068 0
vn -0.7071068 -0.7071068 0
vn -0.7071068 0.7071068 0
vn 0 0.3826834 -0.9238795
vn 0 0.7071068 -0.7071068
vn -0.7071068 0 -0.7071068
vn -0.7071068 0 0.7071068
vn 0.7071068 0 -0.7071068
vn 0.7071068 0 0.7071068

vt 0.09375 0.025
vt 0.09375 0.055
vt 0.09375 0.065
vt 0.09375 0.225
vt 0.09375 0.205
vt 0.21875 0.025
vt 0.21875 0.065
vt 0.21875 0.225
vt 0.21875 0.205
vt 0.21875 0.175
vt 0.21875 0.025
vt 0.21875 0.025
vt 0.21875 0.04722221
vt 0.21875 0.2027778
vt 0.34375 0.315
vt 0.34375 0.475
vt 0.34375 0.455
vt 0.46875 0.175
vt 0.46875 0.225
vt 0.46875 0.025

usemtl colormap

f 3/1/1 2/2/1 1/1/1
f 2/2/1 3/1/1 4/3/1
f 4/3/1 3/1/1 5/3/1
f 5/3/1 3/1/1 6/2/1
f 4/3/1 5/3/1 7/4/1
f 7/4/1 8/4/1 4/3/1
f 11/4/2 10/3/2 9/4/2
f 12/3/2 10/3/2 11/4/2
f 13/1/2 10/3/2 12/3/2
f 13/1/2 12/3/2 14/2/2
f 15/1/2 10/3/2 13/1/2
f 10/3/2 15/1/2 16/2/2
f 9/4/3 7/4/3 11/4/3
f 7/4/3 9/4/3 8/4/3
f 19/3/1 18/5/1 17/5/1
f 18/5/1 19/3/1 20/3/1
f 23/5/2 22/3/2 21/5/2
f 22/3/2 23/5/2 24/3/2
f 18/5/4 21/5/4 17/5/4
f 21/5/4 18/5/4 23/5/4
f 13/6/4 25/6/4 15/6/4
f 25/6/4 13/6/4 26/6/4
f 28/6/4 1/6/4 27/6/4
f 1/6/4 28/6/4 3/6/4
f 8/8/5 22/7/5 4/7/5
f 22/7/5 8/8/5 21/9/5
f 21/9/5 8/8/5 17/9/5
f 9/8/5 17/9/5 8/8/5
f 10/7/5 17/9/5 9/8/5
f 17/9/5 10/7/5 19/7/5
f 26/11/1 29/10/1 25/6/1
f 29/10/1 26/11/1 19/8/1
f 19/8/1 26/11/1 20/8/1
f 20/8/1 26/11/1 30/10/1
f 31/10/7 3/11/6 28/11/6
f 3/11/6 31/10/7 6/10/7
f 32/10/2 28/11/2 27/6/2
f 28/11/2 32/10/2 22/8/2
f 28/11/2 22/8/2 24/8/2
f 28/11/2 24/8/2 31/10/2
f 13/12/6 30/10/7 26/11/6
f 30/10/7 13/12/6 14/10/7
f 5/8/8 31/10/7 24/8/8
f 31/10/7 5/8/8 6/10/7
f 20/8/9 14/10/7 12/8/9
f 14/10/7 20/8/9 30/10/7
f 35/8/4 34/8/4 33/8/4
f 34/8/4 35/8/4 36/8/4
f 39/13/10 38/14/11 37/13/10
f 38/14/11 39/13/10 40/14/11
f 43/14/13 42/13/12 41/13/12
f 42/13/12 43/14/13 44/14/13
f 39/13/10 41/13/12 42/13/12
f 41/13/12 39/13/10 37/13/10
f 38/14/11 44/14/13 43/14/13
f 44/14/13 38/14/11 40/14/11
f 45/6/5 43/14/5 41/13/5
f 45/6/5 41/13/5 37/13/5
f 34/8/5 43/14/5 45/6/5
f 37/13/5 46/6/5 45/6/5
f 43/14/5 34/8/5 36/8/5
f 38/14/5 46/6/5 37/13/5
f 36/8/5 38/14/5 43/14/5
f 38/14/5 36/8/5 46/6/5
f 44/14/6 47/6/6 42/13/6
f 42/13/6 47/6/6 39/13/6
f 44/14/6 33/8/6 47/6/6
f 48/6/6 39/13/6 47/6/6
f 33/8/6 44/14/6 35/8/6
f 48/6/6 40/14/6 39/13/6
f 35/8/6 40/14/6 48/6/6
f 40/14/6 35/8/6 44/14/6
f 11/16/6 20/15/6 12/15/6
f 20/15/6 11/16/6 18/17/6
f 18/17/6 11/16/6 23/17/6
f 7/16/6 23/17/6 11/16/6
f 5/15/6 23/17/6 7/16/6
f 23/17/6 5/15/6 24/15/6
f 19/19/15 16/18/14 29/18/14
f 16/18/14 19/19/15 10/19/15
f 2/18/14 22/19/15 32/18/14
f 22/19/15 2/18/14 4/19/15
f 2/18/14 27/20/5 1/20/5
f 27/20/5 2/18/14 32/18/14
f 25/20/5 16/18/14 15/20/5
f 16/18/14 25/20/5 29/18/14
f 49/20/4 54/20/4 50/20/4
f 53/20/4 50/20/4 54/20/4
f 53/20/17 55/19/17 50/20/16
f 52/19/16 50/20/16 55/19/17
f 56/19/3 51/19/3 55/19/3
f 52/19/3 55/19/3 51/19/3
f 56/19/2 54/20/2 51/19/2
f 49/20/2 51/19/2 54/20/2
f 56/19/6 55/19/17 54/20/6
f 53/20/17 54/20/6 55/19/17
f 52/19/16 51/19/5 50/20/16
f 49/20/5 50/20/16 51/19/5
f 59/19/5 58/20/18 57/20/5
f 58/20/18 59/19/5 60/19/18
f 63/19/19 62/20/6 61/20/19
f 62/20/6 63/19/19 64/19/6
f 62/20/1 59/19/1 57/20/1
f 59/19/1 62/20/1 64/19/1
f 59/19/3 63/19/3 60/19/3
f 63/19/3 59/19/3 64/19/3
f 63/19/19 58/20/18 60/19/18
f 58/20/18 63/19/19 61/20/19
f 62/20/4 58/20/4 61/20/4
f 58/20/4 62/20/4 57/20/4
f 67/19/5 66/20/18 65/20/5
f 66/20/18 67/19/5 68/19/18
f 71/19/19 70/20/6 69/20/19
f 70/20/6 71/19/19 72/19/6
f 70/20/1 67/19/1 65/20/1
f 67/19/1 70/20/1 72/19/1
f 67/19/3 71/19/3 68/19/3
f 71/19/3 67/19/3 72/19/3
f 71/19/19 66/20/18 68/19/18
f 66/20/18 71/19/19 69/20/19
f 70/20/4 66/20/4 69/20/4
f 66/20/4 70/20/4 65/20/4
f 73/20/4 78/20/4 74/20/4
f 77/20/4 74/20/4 78/20/4
f 77/20/17 79/19/17 74/20/16
f 76/19/16 74/20/16 79/19/17
f 80/19/3 75/19/3 79/19/3
f 76/19/3 79/19/3 75/19/3
f 80/19/2 78/20/2 75/19/2
f 73/20/2 75/19/2 78/20/2
f 80/19/6 79/19/17 78/20/6
f 77/20/17 78/20/6 79/19/17
f 76/19/16 75/19/5 74/20/16
f 73/20/5 74/20/16 75/19/5

g wall-window




usemtl colormap

f 3/1/1 2/2/1 1/1/1
f 2/2/1 3/1/1 4/3/1
f 4/3/1 3/1/1 5/3/1
f 5/3/1 3/1/1 6/2/1
f 4/3/1 5/3/1 7/4/1
f 7/4/1 8/4/1 4/3/1
f 11/4/2 10/3/2 9/4/2
f 12/3/2 10/3/2 11/4/2
f 13/1/2 10/3/2 12/3/2
f 13/1/2 12/3/2 14/2/2
f 15/1/2 10/3/2 13/1/2
f 10/3/2 15/1/2 16/2/2
f 9/4/3 7/4/3 11/4/3
f 7/4/3 9/4/3 8/4/3
f 19/3/1 18/5/1 17/5/1
f 18/5/1 19/3/1 20/3/1
f 23/5/2 22/3/2 21/5/2
f 22/3/2 23/5/2 24/3/2
f 18/5/4 21/5/4 17/5/4
f 21/5/4 18/5/4 23/5/4
f 13/6/4 25/6/4 15/6/4
f 25/6/4 13/6/4 26/6/4
f 28/6/4 1/6/4 27/6/4
f 1/6/4 28/6/4 3/6/4
f 8/8/5 22/7/5 4/7/5
f 22/7/5 8/8/5 21/9/5
f 21/9/5 8/8/5 17/9/5
f 9/8/5 17/9/5 8/8/5
f 10/7/5 17/9/5 9/8/5
f 17/9/5 10/7/5 19/7/5
f 26/11/1 29/10/1 25/6/1
f 29/10/1 26/11/1 19/8/1
f 19/8/1 26/11/1 20/8/1
f 20/8/1 26/11/1 30/10/1
f 31/10/7 3/11/6 28/11/6
f 3/11/6 31/10/7 6/10/7
f 32/10/2 28/11/2 27/6/2
f 28/11/2 32/10/2 22/8/2
f 28/11/2 22/8/2 24/8/2
f 28/11/2 24/8/2 31/10/2
f 13/12/6 30/10/7 26/11/6
f 30/10/7 13/12/6 14/10/7
f 5/8/8 31/10/7 24/8/8
f 31/10/7 5/8/8 6/10/7
f 20/8/9 14/10/7 12/8/9
f 14/10/7 20/8/9 30/10/7
f 35/8/4 34/8/4 33/8/4
f 34/8/4 35/8/4 36/8/4
f 39/13/10 38/14/11 37/13/10
f 38/14/11 39/13/10 40/14/11
f 43/14/13 42/13/12 41/13/12
f 42/13/12 43/14/13 44/14/13
f 39/13/10 41/13/12 42/13/12
f 41/13/12 39/13/10 37/13/10
f 38/14/11 44/14/13 43/14/13
f 44/14/13 38/14/11 40/14/11
f 45/6/5 43/14/5 41/13/5
f 45/6/5 41/13/5 37/13/5
f 34/8/5 43/14/5 45/6/5
f 37/13/5 46/6/5 45/6/5
f 43/14/5 34/8/5 36/8/5
f 38/14/5 46/6/5 37/13/5
f 36/8/5 38/14/5 43/14/5
f 38/14/5 36/8/5 46/6/5
f 44/14/6 47/6/6 42/13/6
f 42/13/6 47/6/6 39/13/6
f 44/14/6 33/8/6 47/6/6
f 48/6/6 39/13/6 47/6/6
f 33/8/6 44/14/6 35/8/6
f 48/6/6 40/14/6 39/13/6
f 35/8/6 40/14/6 48/6/6
f 40/14/6 35/8/6 44/14/6
f 11/16/6 20/15/6 12/15/6
f 20/15/6 11/16/6 18/17/6
f 18/17/6 11/16/6 23/17/6
f 7/16/6 23/17/6 11/16/6
f 5/15/6 23/17/6 7/16/6
f 23/17/6 5/15/6 24/15/6
f 19/19/15 16/18/14 29/18/14
f 16/18/14 19/19/15 10/19/15
f 2/18/14 22/19/15 32/18/14
f 22/19/15 2/18/14 4/19/15
f 2/18/14 27/20/5 1/20/5
f 27/20/5 2/18/14 32/18/14
f 25/20/5 16/18/14 15/20/5
f 16/18/14 25/20/5 29/18/14
f 49/20/4 54/20/4 50/20/4
f 53/20/4 50/20/4 54/20/4
f 53/20/17 55/19/17 50/20/16
f 52/19/16 50/20/16 55/19/17
f 56/19/3 51/19/3 55/19/3
f 52/19/3 55/19/3 51/19/3
f 56/19/2 54/20/2 51/19/2
f 49/20/2 51/19/2 54/20/2
f 56/19/6 55/19/17 54/20/6
f 53/20/17 54/20/6 55/19/17
f 52/19/16 51/19/5 50/20/16
f 49/20/5 50/20/16 51/19/5
f 59/19/5 58/20/18 57/20/5
f 58/20/18 59/19/5 60/19/18
f 63/19/19 62/20/6 61/20/19
f 62/20/6 63/19/19 64/19/6
f 62/20/1 59/19/1 57/20/1
f 59/19/1 62/20/1 64/19/1
f 59/19/3 63/19/3 60/19/3
f 63/19/3 59/19/3 64/19/3
f 63/19/19 58/20/18 60/19/18
f 58/20/18 63/19/19 61/20/19
f 62/20/4 58/20/4 61/20/4
f 58/20/4 62/20/4 57/20/4
f 67/19/5 66/20/18 65/20/5
f 66/20/18 67/19/5 68/19/18
f 71/19/19 70/20/6 69/20/19
f 70/20/6 71/19/19 72/19/6
f 70/20/1 67/19/1 65/20/1
f 67/19/1 70/20/1 72/19/1
f 67/19/3 71/19/3 68/19/3
f 71/19/3 67/19/3 72/19/3
f 71/19/19 66/20/18 68/19/18
f 66/20/18 71/19/19 69/20/19
f 70/20/4 66/20/4 69/20/4
f 66/20/4 70/20/4 65/20/4
f 73/20/4 78/20/4 74/20/4
f 77/20/4 74/20/4 78/20/4
f 77/20/17 79/19/17 74/20/16
f 76/19/16 74/20/16 79/19/17
f 80/19/3 75/19/3 79/19/3
f 76/19/3 79/19/3 75/19/3
f 80/19/2 78/20/2 75/19/2
f 73/20/2 75/19/2 78/20/2
f 80/19/6 79/19/17 78/20/6
f 77/20/17 78/20/6 79/19/17
f 76/19/16 75/19/5 74/20/16
f 73/20/5 74/20/16 75/19/5

g (%ignore)

v 0.3 0.1 1.377422E-10 1 1 1
v -0.3 0.1 1.377422E-10 1 1 1
v 0.3 0.8 -2.097146E-09 1 1 1
v -0.3 0.8 1.377422E-10 1 1 1


vt 11.81102 -1.053443E-16
vt -11.81102 2.176618E-09
vt 11.81102 27.55906
vt -11.81102 27.55906

usemtl glass

f 83/23/6 82/22/6 81/21/6
f 82/22/6 83/23/6 84/24/6
f 81/21/5 82/22/5 83/23/5
f 84/24/5 83/23/5 82/22/5

