# Created by Kenney (www.kenney.nl)

mtllib wall-corner.mtl

g wall-corner

v -0.25 0.2 0.25 1 1 1
v -0.25 0.45 0.25 1 1 1
v -0.25 0.2 0.5 1 1 1
v -0.25 0.4259272 0.3846291 1 1 1
v -0.25 0.45 0.5 1 1 1
v -0.5 0.2 0.25 1 1 1
v -0.5 0.45 0.25 1 1 1
v -0.3846291 0.4740728 0.25 1 1 1
v 0.3 2.078766E-13 0.5 1 1 1
v -0.3 1.331248E-09 0.5 1 1 1
v 0.3 0.15 0.5 1 1 1
v -0.3 0.15 0.5 1 1 1
v 0.25 0.2 0.5 1 1 1
v 0.25 1 0.5 1 1 1
v -0.25 1 0.5 1 1 1
v -0.5 2.078766E-13 -0.3 1 1 1
v -0.5 0.15 -0.3 1 1 1
v -0.5 1.07166E-09 0.3 1 1 1
v -0.5 0.2 -0.25 1 1 1
v -0.5 0.15 0.3 1 1 1
v -0.5 1 0.25 1 1 1
v -0.5 1 -0.25 1 1 1
v 0.25 1 -0.05 1 1 1
v 0.1914214 1 -0.1914214 1 1 1
v 0.05 1 -0.25 1 1 1
v -0.25 1 0.25 1 1 1
v 0.1914214 0.2 -0.1914214 1 1 1
v 0.25 0.2 -0.05 1 1 1
v 0.3 1.085141E-09 -0.05994561 1 1 1
v 0.2296897 1.108028E-09 -0.2296897 1 1 1
v 0.05994562 1.159253E-09 -0.3 1 1 1
v -0.3 1.071556E-09 0.3 1 1 1
v 0.05 0.2 -0.25 1 1 1
v -0.3 0.15 0.3 1 1 1
v -0.3846291 0.4740728 0.25 1 1 1
v -0.25 0.4259272 0.3846291 1 1 1
v 0.3 0.15 -0.05994561 1 1 1
v 0.05994562 0.15 -0.3 1 1 1
v 0.2296897 0.15 -0.2296897 1 1 1

vn -1 0 0
vn 0 0 1
vn 0 1 0
vn 0.7071068 0 -0.7071068
vn 0.9807853 0 -0.1950903
vn 0 -1 0
vn 0.1950903 0 -0.9807853
vn 1 0 0
vn 0 0 -1
vn -0.895852 0.4443524 0
vn -0.9238795 0.3826834 0
vn 0 0.7071068 0.7071067
vn 0 0.4443524 0.895852
vn 0 0.3826834 0.9238795
vn -0.7071067 0.7071068 0
vn 0.9107999 0.3709733 -0.1811694
vn 0.9238795 0.3826834 0
vn 0.6867601 0.7139325 -0.1366051
vn 0.7071068 0.7071067 0
vn 0 0.3826834 -0.9238795
vn 0.1811694 0.3709733 -0.9107999
vn 0 0.7071068 -0.7071068
vn 0.1366051 0.7139325 -0.6867601
vn 0.6572475 0.3688517 -0.6572475
vn 0.4798415 0.7345095 -0.4798415

vt 0.96875 0.275
vt 0.96875 0.4574333
vt 0.96875 0.4398665
vt 0.96875 0.475
vt 0.09375 0.025
vt 0.09375 0.055
vt 0.09375 0.065
vt 0.09375 0.225
vt 0.09375 0.115
vt 0.21875 0.225
vt 0.21875 0.065
vt 0.21875 0.025
vt 0.21875 0.175
vt 0.21875 0.025
vt 0.34375 0.365
vt 0.34375 0.3698146
vt 0.34375 0.475
vt 0.34375 0.3601854
vt 0.46875 0.175
vt 0.46875 0.225
vt 0.46875 0.025
vt 0.46875 0.025

usemtl colormap

f 3/1/1 2/2/1 1/1/1
f 2/2/1 3/1/1 4/3/1
f 4/3/1 3/1/1 5/2/1
f 2/2/2 6/1/2 1/1/2
f 6/1/2 2/2/2 7/2/2
f 7/2/2 2/2/2 8/4/2
f 11/6/2 10/5/2 9/5/2
f 10/5/2 11/6/2 12/6/2
f 12/6/2 11/6/2 13/7/2
f 12/6/2 13/7/2 3/7/2
f 3/7/2 13/7/2 14/8/2
f 3/7/2 14/8/2 5/9/2
f 5/9/2 14/8/2 15/8/2
f 18/5/1 17/6/1 16/5/1
f 17/6/1 18/5/1 19/7/1
f 19/7/1 18/5/1 6/7/1
f 6/7/1 18/5/1 20/6/1
f 19/7/1 6/7/1 7/9/1
f 19/7/1 7/9/1 21/8/1
f 21/8/1 22/8/1 19/7/1
f 23/8/3 15/8/3 14/8/3
f 15/8/3 23/8/3 24/8/3
f 15/8/3 24/8/3 25/8/3
f 15/8/3 25/8/3 26/8/3
f 26/8/3 25/8/3 22/8/3
f 26/8/3 22/8/3 21/8/3
f 23/10/5 27/11/4 24/10/4
f 27/11/4 23/10/5 28/11/5
f 9/12/6 30/12/6 29/12/6
f 30/12/6 9/12/6 10/12/6
f 30/12/6 10/12/6 31/12/6
f 31/12/6 10/12/6 32/12/6
f 32/12/6 16/12/6 31/12/6
f 16/12/6 32/12/6 18/12/6
f 33/11/7 24/10/4 27/11/4
f 24/10/4 33/11/7 25/10/7
f 14/10/8 28/11/5 23/10/5
f 28/11/5 14/10/8 13/11/8
f 19/11/9 25/10/7 33/11/7
f 25/10/7 19/11/9 22/10/9
f 32/14/1 12/13/11 34/13/10
f 12/13/11 32/14/1 10/14/1
f 6/10/12 34/13/13 1/10/12
f 34/13/13 6/10/12 20/13/14
f 34/13/13 18/14/2 32/14/2
f 18/14/2 34/13/13 20/13/14
f 34/13/10 3/10/15 1/10/15
f 3/10/15 34/13/10 12/13/11
f 26/17/2 35/16/2 2/15/2
f 21/17/2 35/16/2 26/17/2
f 35/16/2 21/17/2 7/15/2
f 2/15/1 15/17/1 26/17/1
f 15/17/1 2/15/1 36/18/1
f 15/17/1 36/18/1 5/15/1
f 28/20/18 11/19/17 37/19/16
f 11/19/17 28/20/18 13/20/19
f 17/19/20 31/22/7 16/21/9
f 31/22/7 17/19/20 38/19/21
f 19/20/22 38/19/21 17/19/20
f 38/19/21 19/20/22 33/20/23
f 38/19/21 27/20/25 39/19/24
f 27/20/25 38/19/21 33/20/23
f 39/19/24 28/20/18 37/19/16
f 28/20/18 39/19/24 27/20/25
f 37/19/16 9/21/8 29/22/5
f 9/21/8 37/19/16 11/19/17
f 31/22/7 39/19/24 30/22/4
f 39/19/24 31/22/7 38/19/21
f 39/19/24 29/22/5 30/22/4
f 29/22/5 39/19/24 37/19/16

g wall-corner




usemtl colormap

f 3/1/1 2/2/1 1/1/1
f 2/2/1 3/1/1 4/3/1
f 4/3/1 3/1/1 5/2/1
f 2/2/2 6/1/2 1/1/2
f 6/1/2 2/2/2 7/2/2
f 7/2/2 2/2/2 8/4/2
f 11/6/2 10/5/2 9/5/2
f 10/5/2 11/6/2 12/6/2
f 12/6/2 11/6/2 13/7/2
f 12/6/2 13/7/2 3/7/2
f 3/7/2 13/7/2 14/8/2
f 3/7/2 14/8/2 5/9/2
f 5/9/2 14/8/2 15/8/2
f 18/5/1 17/6/1 16/5/1
f 17/6/1 18/5/1 19/7/1
f 19/7/1 18/5/1 6/7/1
f 6/7/1 18/5/1 20/6/1
f 19/7/1 6/7/1 7/9/1
f 19/7/1 7/9/1 21/8/1
f 21/8/1 22/8/1 19/7/1
f 23/8/3 15/8/3 14/8/3
f 15/8/3 23/8/3 24/8/3
f 15/8/3 24/8/3 25/8/3
f 15/8/3 25/8/3 26/8/3
f 26/8/3 25/8/3 22/8/3
f 26/8/3 22/8/3 21/8/3
f 23/10/5 27/11/4 24/10/4
f 27/11/4 23/10/5 28/11/5
f 9/12/6 30/12/6 29/12/6
f 30/12/6 9/12/6 10/12/6
f 30/12/6 10/12/6 31/12/6
f 31/12/6 10/12/6 32/12/6
f 32/12/6 16/12/6 31/12/6
f 16/12/6 32/12/6 18/12/6
f 33/11/7 24/10/4 27/11/4
f 24/10/4 33/11/7 25/10/7
f 14/10/8 28/11/5 23/10/5
f 28/11/5 14/10/8 13/11/8
f 19/11/9 25/10/7 33/11/7
f 25/10/7 19/11/9 22/10/9
f 32/14/1 12/13/11 34/13/10
f 12/13/11 32/14/1 10/14/1
f 6/10/12 34/13/13 1/10/12
f 34/13/13 6/10/12 20/13/14
f 34/13/13 18/14/2 32/14/2
f 18/14/2 34/13/13 20/13/14
f 34/13/10 3/10/15 1/10/15
f 3/10/15 34/13/10 12/13/11
f 26/17/2 35/16/2 2/15/2
f 21/17/2 35/16/2 26/17/2
f 35/16/2 21/17/2 7/15/2
f 2/15/1 15/17/1 26/17/1
f 15/17/1 2/15/1 36/18/1
f 15/17/1 36/18/1 5/15/1
f 28/20/18 11/19/17 37/19/16
f 11/19/17 28/20/18 13/20/19
f 17/19/20 31/22/7 16/21/9
f 31/22/7 17/19/20 38/19/21
f 19/20/22 38/19/21 17/19/20
f 38/19/21 19/20/22 33/20/23
f 38/19/21 27/20/25 39/19/24
f 27/20/25 38/19/21 33/20/23
f 39/19/24 28/20/18 37/19/16
f 28/20/18 39/19/24 27/20/25
f 37/19/16 9/21/8 29/22/5
f 9/21/8 37/19/16 11/19/17
f 31/22/7 39/19/24 30/22/4
f 39/19/24 31/22/7 38/19/21
f 39/19/24 29/22/5 30/22/4
f 29/22/5 39/19/24 37/19/16

