# Created by Kenney (www.kenney.nl)

mtllib wall.mtl

g wall

v 0.5 3.763054E-09 0.3 1 1 1
v 0.5 0.15 0.3 1 1 1
v 0.5 0 -0.3 1 1 1
v 0.5 0.2 0.25 1 1 1
v 0.5 0.45 0.25 1 1 1
v 0.5 1 0.25 1 1 1
v 0.5 0.2 -0.25 1 1 1
v 0.5 0.15 -0.3 1 1 1
v 0.5 1 -0.25 1 1 1
v -0.5 1 -0.25 1 1 1
v -0.5 1 0.25 1 1 1
v -0.5 0.2 -0.25 1 1 1
v -0.5 0 -0.3 1 1 1
v -0.5 0.15 -0.3 1 1 1
v -0.5 0.45 0.25 1 1 1
v -0.5 0.2 0.25 1 1 1
v -0.5 2.44538E-09 0.3 1 1 1
v -0.5 0.15 0.3 1 1 1
v 0.25 0.35 0.25 1 1 1
v 0.1153709 0.3759272 0.25 1 1 1
v 0.3846291 0.3759272 0.25 1 1 1
v 1.948477E-11 0.45 0.25 1 1 1
v -0.1153709 0.5240728 0.25 1 1 1
v -0.25 0.55 0.25 1 1 1
v -0.3846291 0.5240728 0.25 1 1 1
v 0.3846291 0.3759272 0.25 1 1 1
v 0.25 0.35 0.25 1 1 1
v 0.1153709 0.3759272 0.25 1 1 1
v 1.948471E-11 0.45 0.25 1 1 1

vn 1 0 -1.096129E-12
vn 0 1 0
vn -1 0 1.096129E-12
vn -1.096129E-12 0 -1
vn 0 -1 0
vn 1.096129E-12 0 1
vn 1.012692E-12 0.3826834 0.9238795
vn 7.750806E-13 0.7071068 0.7071068
vn -1.012692E-12 0.3826834 -0.9238795
vn -7.750806E-13 0.7071068 -0.7071068

vt 0.09375 0.025
vt 0.09375 0.055
vt 0.09375 0.065
vt 0.09375 0.115
vt 0.09375 0.225
vt 0.21875 0.065
vt 0.21875 0.225
vt 0.21875 0.025
vt 0.21875 0.025
vt 0.21875 0.175
vt 0.21875 0.025
vt 0.34375 0.345
vt 0.34375 0.3501854
vt 0.34375 0.365
vt 0.34375 0.475
vt 0.34375 0.3798146
vt 0.34375 0.385
vt 0.96875 0.4178571
vt 0.96875 0.275
vt 0.96875 0.3755298
vt 0.96875 0.3607143
vt 0.96875 0.4601845
vt 0.96875 0.475
vt 0.46875 0.025
vt 0.46875 0.175
vt 0.46875 0.225

usemtl colormap

f 3/1/1 2/2/1 1/1/1
f 2/2/1 3/1/1 4/3/1
f 4/3/1 3/1/1 5/4/1
f 5/4/1 3/1/1 6/5/1
f 6/5/1 3/1/1 7/3/1
f 7/3/1 3/1/1 8/2/1
f 9/5/1 6/5/1 7/3/1
f 11/5/2 9/5/2 10/5/2
f 9/5/2 11/5/2 6/5/2
f 10/5/3 12/3/3 11/5/3
f 13/1/3 11/5/3 12/3/3
f 13/1/3 12/3/3 14/2/3
f 13/1/3 15/4/3 11/5/3
f 13/1/3 16/3/3 15/4/3
f 17/1/3 16/3/3 13/1/3
f 16/3/3 17/1/3 18/2/3
f 10/7/4 7/6/4 12/6/4
f 7/6/4 10/7/4 9/7/4
f 13/8/5 1/8/5 17/8/5
f 1/8/5 13/8/5 3/8/5
f 1/11/6 18/10/7 17/9/6
f 18/10/7 1/11/6 2/10/7
f 2/10/7 16/7/8 18/10/7
f 16/7/8 2/10/7 4/7/8
f 21/13/6 20/13/6 19/12/6
f 20/13/6 21/13/6 5/14/6
f 20/13/6 5/14/6 22/14/6
f 22/14/6 5/14/6 6/15/6
f 22/14/6 6/15/6 23/16/6
f 23/16/6 6/15/6 24/17/6
f 11/15/6 24/17/6 6/15/6
f 11/15/6 25/16/6 24/17/6
f 25/16/6 11/15/6 15/14/6
f 26/20/6 4/19/6 5/18/6
f 4/19/6 26/20/6 16/19/6
f 16/19/6 26/20/6 27/21/6
f 27/21/6 15/18/6 16/19/6
f 15/18/6 27/21/6 28/20/6
f 15/18/6 28/20/6 29/18/6
f 15/18/6 29/18/6 23/22/6
f 15/18/6 23/22/6 25/22/6
f 25/22/6 23/22/6 24/23/6
f 14/25/9 3/24/4 13/24/4
f 3/24/4 14/25/9 8/25/9
f 7/26/10 14/25/9 12/26/10
f 14/25/9 7/26/10 8/25/9

g wall




usemtl colormap

f 3/1/1 2/2/1 1/1/1
f 2/2/1 3/1/1 4/3/1
f 4/3/1 3/1/1 5/4/1
f 5/4/1 3/1/1 6/5/1
f 6/5/1 3/1/1 7/3/1
f 7/3/1 3/1/1 8/2/1
f 9/5/1 6/5/1 7/3/1
f 11/5/2 9/5/2 10/5/2
f 9/5/2 11/5/2 6/5/2
f 10/5/3 12/3/3 11/5/3
f 13/1/3 11/5/3 12/3/3
f 13/1/3 12/3/3 14/2/3
f 13/1/3 15/4/3 11/5/3
f 13/1/3 16/3/3 15/4/3
f 17/1/3 16/3/3 13/1/3
f 16/3/3 17/1/3 18/2/3
f 10/7/4 7/6/4 12/6/4
f 7/6/4 10/7/4 9/7/4
f 13/8/5 1/8/5 17/8/5
f 1/8/5 13/8/5 3/8/5
f 1/11/6 18/10/7 17/9/6
f 18/10/7 1/11/6 2/10/7
f 2/10/7 16/7/8 18/10/7
f 16/7/8 2/10/7 4/7/8
f 21/13/6 20/13/6 19/12/6
f 20/13/6 21/13/6 5/14/6
f 20/13/6 5/14/6 22/14/6
f 22/14/6 5/14/6 6/15/6
f 22/14/6 6/15/6 23/16/6
f 23/16/6 6/15/6 24/17/6
f 11/15/6 24/17/6 6/15/6
f 11/15/6 25/16/6 24/17/6
f 25/16/6 11/15/6 15/14/6
f 26/20/6 4/19/6 5/18/6
f 4/19/6 26/20/6 16/19/6
f 16/19/6 26/20/6 27/21/6
f 27/21/6 15/18/6 16/19/6
f 15/18/6 27/21/6 28/20/6
f 15/18/6 28/20/6 29/18/6
f 15/18/6 29/18/6 23/22/6
f 15/18/6 23/22/6 25/22/6
f 25/22/6 23/22/6 24/23/6
f 14/25/9 3/24/4 13/24/4
f 3/24/4 14/25/9 8/25/9
f 7/26/10 14/25/9 12/26/10
f 14/25/9 7/26/10 8/25/9

